TITLE ""
FILE "P1Q_j_1670-1683.mp3" MP3
  TRACK 01 AUDIO
    TITLE "P1Q_j_1670-1683_01"
    INDEX 01 00:00:00
  TRACK 02 AUDIO
    TITLE "P1Q_j_1670-1683_02"
    INDEX 01 00:02:43
  TRACK 03 AUDIO
    TITLE "P1Q_j_1670-1683_03"
    INDEX 01 00:02:60
  TRACK 04 AUDIO
    TITLE "P1Q_j_1670-1683_04"
    INDEX 01 00:04:57
  TRACK 05 AUDIO
    TITLE "P1Q_j_1670-1683_05"
    INDEX 01 00:05:02
  TRACK 06 AUDIO
    TITLE "P1Q_j_1670-1683_06"
    INDEX 01 00:09:43
  TRACK 07 AUDIO
    TITLE "P1Q_j_1670-1683_07"
    INDEX 01 00:10:13
  TRACK 08 AUDIO
    TITLE "P1Q_j_1670-1683_08"
    INDEX 01 00:11:45
  TRACK 09 AUDIO
    TITLE "P1Q_j_1670-1683_09"
    INDEX 01 00:11:67
  TRACK 10 AUDIO
    TITLE "P1Q_j_1670-1683_10"
    INDEX 01 00:14:12
  TRACK 11 AUDIO
    TITLE "P1Q_j_1670-1683_11"
    INDEX 01 00:14:32
  TRACK 12 AUDIO
    TITLE "P1Q_j_1670-1683_12"
    INDEX 01 00:19:57
  TRACK 13 AUDIO
    TITLE "P1Q_j_1670-1683_13"
    INDEX 01 00:20:27
  TRACK 14 AUDIO
    TITLE "P1Q_j_1670-1683_14"
    INDEX 01 00:21:54
  TRACK 15 AUDIO
    TITLE "P1Q_j_1670-1683_15"
    INDEX 01 00:22:02
  TRACK 16 AUDIO
    TITLE "P1Q_j_1670-1683_16"
    INDEX 01 00:23:31
  TRACK 17 AUDIO
    TITLE "P1Q_j_1670-1683_17"
    INDEX 01 00:23:51
  TRACK 18 AUDIO
    TITLE "P1Q_j_1670-1683_18"
    INDEX 01 00:28:69
  TRACK 19 AUDIO
    TITLE "P1Q_j_1670-1683_19"
    INDEX 01 00:29:41
  TRACK 20 AUDIO
    TITLE "P1Q_j_1670-1683_20"
    INDEX 01 00:31:17
  TRACK 21 AUDIO
    TITLE "P1Q_j_1670-1683_21"
    INDEX 01 00:31:38
  TRACK 22 AUDIO
    TITLE "P1Q_j_1670-1683_22"
    INDEX 01 00:35:09
  TRACK 23 AUDIO
    TITLE "P1Q_j_1670-1683_23"
    INDEX 01 00:35:26
  TRACK 24 AUDIO
    TITLE "P1Q_j_1670-1683_24"
    INDEX 01 00:40:20
  TRACK 25 AUDIO
    TITLE "P1Q_j_1670-1683_25"
    INDEX 01 00:40:65
  TRACK 26 AUDIO
    TITLE "P1Q_j_1670-1683_26"
    INDEX 01 00:42:44
  TRACK 27 AUDIO
    TITLE "P1Q_j_1670-1683_27"
    INDEX 01 00:42:66
  TRACK 28 AUDIO
    TITLE "P1Q_j_1670-1683_28"
    INDEX 01 00:46:59
  TRACK 29 AUDIO
    TITLE "P1Q_j_1670-1683_29"
    INDEX 01 00:47:04
  TRACK 30 AUDIO
    TITLE "P1Q_j_1670-1683_30"
    INDEX 01 00:51:47
  TRACK 31 AUDIO
    TITLE "P1Q_j_1670-1683_31"
    INDEX 01 00:52:17
  TRACK 32 AUDIO
    TITLE "P1Q_j_1670-1683_32"
    INDEX 01 00:53:54
  TRACK 33 AUDIO
    TITLE "P1Q_j_1670-1683_33"
    INDEX 01 00:54:02
  TRACK 34 AUDIO
    TITLE "P1Q_j_1670-1683_34"
    INDEX 01 00:56:50
  TRACK 35 AUDIO
    TITLE "P1Q_j_1670-1683_35"
    INDEX 01 00:56:70
  TRACK 36 AUDIO
    TITLE "P1Q_j_1670-1683_36"
    INDEX 01 01:00:30
  TRACK 37 AUDIO
    TITLE "P1Q_j_1670-1683_37"
    INDEX 01 01:01:00
  TRACK 38 AUDIO
    TITLE "P1Q_j_1670-1683_38"
    INDEX 01 01:02:39
  TRACK 39 AUDIO
    TITLE "P1Q_j_1670-1683_39"
    INDEX 01 01:02:58
  TRACK 40 AUDIO
    TITLE "P1Q_j_1670-1683_40"
    INDEX 01 01:05:61
  TRACK 41 AUDIO
    TITLE "P1Q_j_1670-1683_41"
    INDEX 01 01:06:05
  TRACK 42 AUDIO
    TITLE "P1Q_j_1670-1683_42"
    INDEX 01 01:12:39
  TRACK 43 AUDIO
    TITLE "P1Q_j_1670-1683_43"
    INDEX 01 01:13:09
  TRACK 44 AUDIO
    TITLE "P1Q_j_1670-1683_44"
    INDEX 01 01:14:42
  TRACK 45 AUDIO
    TITLE "P1Q_j_1670-1683_45"
    INDEX 01 01:14:64
  TRACK 46 AUDIO
    TITLE "P1Q_j_1670-1683_46"
    INDEX 01 01:19:20
  TRACK 47 AUDIO
    TITLE "P1Q_j_1670-1683_47"
    INDEX 01 01:19:37
  TRACK 48 AUDIO
    TITLE "P1Q_j_1670-1683_48"
    INDEX 01 01:24:11
  TRACK 49 AUDIO
    TITLE "P1Q_j_1670-1683_49"
    INDEX 01 01:24:56
  TRACK 50 AUDIO
    TITLE "P1Q_j_1670-1683_50"
    INDEX 01 01:26:08
  TRACK 51 AUDIO
    TITLE "P1Q_j_1670-1683_51"
    INDEX 01 01:26:31
  TRACK 52 AUDIO
    TITLE "P1Q_j_1670-1683_52"
    INDEX 01 01:30:25
  TRACK 53 AUDIO
    TITLE "P1Q_j_1670-1683_53"
    INDEX 01 01:30:45
  TRACK 54 AUDIO
    TITLE "P1Q_j_1670-1683_54"
    INDEX 01 01:33:59
  TRACK 55 AUDIO
    TITLE "P1Q_j_1670-1683_55"
    INDEX 01 01:34:31
  TRACK 56 AUDIO
    TITLE "P1Q_j_1670-1683_56"
    INDEX 01 01:35:56
  TRACK 57 AUDIO
    TITLE "P1Q_j_1670-1683_57"
    INDEX 01 01:36:02
  TRACK 58 AUDIO
    TITLE "P1Q_j_1670-1683_58"
    INDEX 01 01:41:45
  TRACK 59 AUDIO
    TITLE "P1Q_j_1670-1683_59"
    INDEX 01 01:41:66
  TRACK 60 AUDIO
    TITLE "P1Q_j_1670-1683_60"
    INDEX 01 01:45:29
  TRACK 61 AUDIO
    TITLE "P1Q_j_1670-1683_61"
    INDEX 01 01:45:74
  TRACK 62 AUDIO
    TITLE "P1Q_j_1670-1683_62"
    INDEX 01 01:47:39
  TRACK 63 AUDIO
    TITLE "P1Q_j_1670-1683_63"
    INDEX 01 01:47:63
  TRACK 64 AUDIO
    TITLE "P1Q_j_1670-1683_64"
    INDEX 01 01:49:60
  TRACK 65 AUDIO
    TITLE "P1Q_j_1670-1683_65"
    INDEX 01 01:50:06
  TRACK 66 AUDIO
    TITLE "P1Q_j_1670-1683_66"
    INDEX 01 01:54:42
  TRACK 67 AUDIO
    TITLE "P1Q_j_1670-1683_67"
    INDEX 01 01:55:12
  TRACK 68 AUDIO
    TITLE "P1Q_j_1670-1683_68"
    INDEX 01 01:56:38
  TRACK 69 AUDIO
    TITLE "P1Q_j_1670-1683_69"
    INDEX 01 01:56:60
  TRACK 70 AUDIO
    TITLE "P1Q_j_1670-1683_70"
    INDEX 01 01:59:64
  TRACK 71 AUDIO
    TITLE "P1Q_j_1670-1683_71"
    INDEX 01 02:00:09
  TRACK 72 AUDIO
    TITLE "P1Q_j_1670-1683_72"
    INDEX 01 02:04:71
  TRACK 73 AUDIO
    TITLE "P1Q_j_1670-1683_73"
    INDEX 01 02:05:41
  TRACK 74 AUDIO
    TITLE "P1Q_j_1670-1683_74"
    INDEX 01 02:07:32
  TRACK 75 AUDIO
    TITLE "P1Q_j_1670-1683_75"
    INDEX 01 02:07:52
  TRACK 76 AUDIO
    TITLE "P1Q_j_1670-1683_76"
    INDEX 01 02:11:24
  TRACK 77 AUDIO
    TITLE "P1Q_j_1670-1683_77"
    INDEX 01 02:11:44
  TRACK 78 AUDIO
    TITLE "P1Q_j_1670-1683_78"
    INDEX 01 02:17:11
  TRACK 79 AUDIO
    TITLE "P1Q_j_1670-1683_79"
    INDEX 01 02:17:56
  TRACK 80 AUDIO
    TITLE "P1Q_j_1670-1683_80"
    INDEX 01 02:19:34
  TRACK 81 AUDIO
    TITLE "P1Q_j_1670-1683_81"
    INDEX 01 02:19:53
  TRACK 82 AUDIO
    TITLE "P1Q_j_1670-1683_82"
    INDEX 01 02:24:72
  TRACK 83 AUDIO
    TITLE "P1Q_j_1670-1683_83"
    INDEX 01 02:25:17
  TRACK 84 AUDIO
    TITLE "P1Q_j_1670-1683_84"
    INDEX 01 02:28:33
